<svg width="24" height="20" viewBox="0 0 24 20" fill="none" xmlns="http://www.w3.org/2000/svg">
<path d="M21.75 18.5714H2.25C1.005 18.5714 0 17.6143 0 16.4286V3.57143C0 2.38571 1.005 1.42857 2.25 1.42857H21.75C22.995 1.42857 24 2.38571 24 3.57143V16.4286C24 17.6143 22.995 18.5714 21.75 18.5714ZM2.25 2.85714C1.83 2.85714 1.5 3.17143 1.5 3.57143V16.4286C1.5 16.8286 1.83 17.1429 2.25 17.1429H21.75C22.17 17.1429 22.5 16.8286 22.5 16.4286V3.57143C22.5 3.17143 22.17 2.85714 21.75 2.85714H2.25Z" fill="#565B62"/>
<path d="M11.9999 12.8C10.9499 12.8 9.98988 12.4 9.26988 11.6714L1.39488 3.7C1.10988 3.41429 1.12488 2.95714 1.42488 2.68571C1.72488 2.41429 2.20488 2.42857 2.48988 2.71429L10.3649 10.6857C11.2199 11.5571 12.7799 11.5571 13.6349 10.6857L21.5099 2.72857C21.7949 2.44286 22.2749 2.42857 22.5749 2.7C22.8749 2.97143 22.8899 3.42857 22.6049 3.71429L14.7299 11.6857C14.0099 12.4143 13.0499 12.8143 11.9999 12.8143V12.8Z" fill="#565B62"/>
</svg>
