<svg width="23" height="24" viewBox="0 0 23 24" fill="none" xmlns="http://www.w3.org/2000/svg">
<path d="M7.89772 0.658116C10.4633 -0.242855 13.253 -0.218074 15.8029 0.728335C17.2032 1.26468 18.4862 2.07859 19.5783 3.12337C19.2072 3.5295 18.8158 3.90906 18.4373 4.3038C17.7175 5.03889 16.9983 5.77144 16.2797 6.50146C15.5633 5.80056 14.6968 5.28065 13.7491 4.98322C12.5365 4.60867 11.2465 4.58302 10.0205 4.9091C8.79458 5.23517 7.68012 5.90036 6.79942 6.83168C6.03068 7.63168 5.44849 8.59895 5.09632 9.66131L1.25042 6.61533C2.62702 3.82283 5.01051 1.68677 7.89772 0.658116Z" fill="#E33629"/>
<path d="M0.230044 9.63285C0.436605 8.58482 0.779797 7.56992 1.25042 6.61533L5.09632 9.6689C4.59335 11.1845 4.59335 12.8276 5.09632 14.3432C3.81497 15.3554 2.53301 16.3726 1.25042 17.3949C0.0726283 14.9966 -0.286578 12.2642 0.230044 9.63285Z" fill="#F8BD00"/>
<path d="M11.7343 9.7562H22.7767C23.1542 11.8759 23.052 14.056 22.478 16.129C21.9497 18.0353 20.9235 19.7583 19.5096 21.1127C18.2685 20.122 17.0218 19.139 15.7806 18.1483C16.3959 17.7237 16.9211 17.1764 17.3247 16.5392C17.7283 15.902 18.002 15.188 18.1293 14.44H11.7343C11.7325 12.88 11.7343 11.3181 11.7343 9.7562Z" fill="#587DBD"/>
<path d="M1.24857 17.3949C2.53115 16.3827 3.81312 15.3655 5.09446 14.3432C5.5902 15.8315 6.53302 17.1214 7.78826 18.0287C8.57108 18.595 9.46075 18.988 10.4004 19.1826C11.3263 19.3588 12.276 19.3588 13.2018 19.1826C14.125 19.023 15.0054 18.6674 15.7862 18.1388C17.0273 19.1295 18.274 20.1125 19.5152 21.1032C18.157 22.3666 16.5012 23.2475 14.7101 23.6595C12.7332 24.135 10.673 24.1122 8.7066 23.5931C7.15137 23.1683 5.69867 22.4195 4.43957 21.3936C3.10701 20.3111 2.01855 18.9471 1.24857 17.3949Z" fill="#319F43"/>
</svg>
