<svg width="140" height="122" viewBox="0 0 140 122" fill="none" xmlns="http://www.w3.org/2000/svg">
<path fill-rule="evenodd" clip-rule="evenodd" d="M109.732 48.9175L55.3809 80.4608C55.3809 80.4608 52.9663 60.6851 66.1699 50.7426C77.1037 42.5092 102.826 28.7259 102.826 28.7259" fill="#4B00FA"/>
<path fill-rule="evenodd" clip-rule="evenodd" d="M12.7668 81.6958C14.0895 86.1698 15.9512 90.5578 18.3809 94.7727C19.4405 96.6118 20.5811 98.373 21.7983 100.055L0.164825 112.611C0.164825 112.611 -2.20232 92.9138 11.0048 82.9818C11.5565 82.5671 12.1466 82.1361 12.7668 81.6958Z" fill="#FF9A78"/>
<path fill-rule="evenodd" clip-rule="evenodd" d="M139.276 46.4559C143.346 70.8346 129.932 100.746 107.326 113.827C78.2343 130.66 40.9791 120.655 24.1819 91.499C7.38581 62.3432 17.3691 25.0073 46.461 8.17324C75.553 -8.65968 112.809 1.34434 129.605 30.499C129.871 30.9602 132.197 34.9811 132.297 35.914L108.652 49.5021C108.235 48.6064 106.732 44.8945 106.232 44.0243C96.8839 27.7979 75.364 20.4079 59.172 29.7764C42.981 39.1449 35.9909 62.3141 45.3389 78.5418C54.6869 94.7671 78.6887 102.531 94.8796 93.1627C100.14 90.1188 109.815 82.8519 114.103 71.8244C120.008 56.6365 125.691 51.9488 139.276 46.4559Z" fill="#4B00FA"/>
</svg>
